<svg width="53" height="54" viewBox="0 0 53 54" fill="none" xmlns="http://www.w3.org/2000/svg">
<rect y="2.53662" width="50.7317" height="50.7317" rx="25.3659" fill="#1E3841"/>
<rect width="30.439" height="30.439" transform="translate(10.1462 15.2197)" fill="white" fill-opacity="0.01"/>
<path fill-rule="evenodd" clip-rule="evenodd" d="M20.4524 27.9025H15.2194C13.8078 27.9025 12.6829 29.0376 12.6829 30.4391V35.1698C12.6829 36.8313 15.0596 37.7736 17.756 37.9981V34.2389C17.758 33.2309 18.1597 32.2648 18.873 31.5525C19.5862 30.8402 20.5529 30.4398 21.5609 30.4391H22.0099C21.2488 29.7683 20.7063 28.8848 20.4524 27.9025ZM30.2792 27.9025H35.5121C36.9136 27.9025 38.0487 29.025 38.0487 30.4391V35.1698C38.0487 36.8313 35.6719 37.7736 32.9755 37.9981V34.2389C32.9742 33.2307 32.5727 32.2642 31.8593 31.5517C31.1459 30.8393 30.1789 30.4391 29.1707 30.4391H28.7217C29.4828 29.7683 30.0253 28.8848 30.2792 27.9025ZM22.7873 22.2637C22.6706 21.4888 22.3175 20.7689 21.7763 20.2023C21.235 19.6356 20.532 19.2499 19.7633 19.0979C18.9946 18.9458 18.1977 19.0348 17.4814 19.3526C16.7652 19.6705 16.1646 20.2018 15.7616 20.8738C15.3587 21.5459 15.1731 22.326 15.2301 23.1075C15.2872 23.889 15.5842 24.6339 16.0805 25.2403C16.5768 25.8467 17.2482 26.285 18.003 26.4955C18.7578 26.7059 19.5592 26.6782 20.2977 26.4161C20.3336 25.5713 20.5802 24.7489 21.0151 24.0236C21.4499 23.2984 22.0591 22.6934 22.7873 22.2637ZM30.4352 26.4161C31.1735 26.6781 31.9748 26.7058 32.7295 26.4953C33.4842 26.2849 34.1555 25.8466 34.6518 25.2404C35.1481 24.6341 35.4451 23.8894 35.5023 23.108C35.5595 22.3266 35.3741 21.5466 34.9714 20.8746C34.5687 20.2025 33.9683 19.6712 33.2523 19.3531C32.5363 19.035 31.7395 18.9457 30.9709 19.0974C30.2022 19.2491 29.4991 19.6344 28.9576 20.2006C28.4162 20.7669 28.0627 21.4865 27.9455 22.2612C28.6745 22.6907 29.2842 23.296 29.7191 24.0218C30.154 24.7475 30.4002 25.5707 30.4352 26.4161Z" fill="white"/>
<path fill-rule="evenodd" clip-rule="evenodd" d="M19.0243 34.244C19.0243 32.8425 20.1493 31.7074 21.5609 31.7074H29.1707C30.5721 31.7074 31.7073 32.8298 31.7073 34.244V38.9747C31.7073 42.8138 19.0243 42.8138 19.0243 38.9747V34.244Z" fill="white"/>
<path d="M25.3658 30.4391C27.4672 30.4391 29.1707 28.7356 29.1707 26.6342C29.1707 24.5329 27.4672 22.8294 25.3658 22.8294C23.2644 22.8294 21.5609 24.5329 21.5609 26.6342C21.5609 28.7356 23.2644 30.4391 25.3658 30.4391Z" fill="white"/>
<path fill-rule="evenodd" clip-rule="evenodd" d="M42.1463 20.2927C39.4554 20.2927 36.8746 19.2237 34.9718 17.3209C33.069 15.4181 32 12.8373 32 10.1463C32 7.45536 33.069 4.8746 34.9718 2.97179C36.8746 1.06899 39.4554 0 42.1463 0C44.8373 0 47.4181 1.06899 49.3209 2.97179C51.2237 4.8746 52.2927 7.45536 52.2927 10.1463C52.2927 12.8373 51.2237 15.4181 49.3209 17.3209C47.4181 19.2237 44.8373 20.2927 42.1463 20.2927ZM43.8763 6.38712L41.1469 11.5998L39.19 9.83688C39.0661 9.72545 38.9216 9.63951 38.7645 9.58396C38.6075 9.5284 38.441 9.50432 38.2747 9.5131C38.1083 9.52187 37.9453 9.56332 37.795 9.63509C37.6446 9.70686 37.5099 9.80753 37.3985 9.93137C37.2871 10.0552 37.2011 10.1998 37.1456 10.3568C37.09 10.5139 37.0659 10.6803 37.0747 10.8467C37.0835 11.013 37.1249 11.176 37.1967 11.3263C37.2685 11.4767 37.3691 11.6114 37.493 11.7228L40.6637 14.5765C40.8074 14.7059 40.9787 14.8007 41.1646 14.8537C41.3506 14.9067 41.5461 14.9165 41.7364 14.8824C41.9267 14.8483 42.1067 14.7711 42.2626 14.6567C42.4185 14.5424 42.5462 14.3939 42.6359 14.2226L46.1237 7.5641C46.2798 7.26607 46.3111 6.91825 46.2107 6.59715C46.1103 6.27605 45.8865 6.00798 45.5885 5.8519C45.2905 5.69583 44.9426 5.66453 44.6215 5.7649C44.3004 5.86528 44.0324 6.0891 43.8763 6.38712Z" fill="#158D9E"/>
</svg>
